<svg xmlns="http://www.w3.org/2000/svg" viewBox="0 0 18.12 12" height="20px">
  <path style="fill:#c9c9c9" d="M16.11,4H16a1.76,1.76,0,0,0-1.75-1.43H10.51a1.8,1.8,0,0,1-1.25-.5L7.63.5A1.8,1.8,0,0,0,6.37,0H1.78A1.75,1.75,0,0,0,0,1.71v8.58A1.75,1.75,0,0,0,1.78,12H14.61a2,2,0,0,0,1.88-1.3l1.5-4A2,2,0,0,0,16.11,4ZM1,1.71A.75.75,0,0,1,1.78,1H6.37a.83.83,0,0,1,.57.22L8.56,2.79a2.83,2.83,0,0,0,1.95.78h3.71a.78.78,0,0,1,.71.43H4.39A2,2,0,0,0,2.51,5.3L1,9.3a.06.06,0,0,0,0,0ZM17.05,6.35,16,9.15l-.45,1.2a1,1,0,0,1-.94.65H2.89a1,1,0,0,1-.83-.43A1,1,0,0,1,2,9.65l1.5-4A1,1,0,0,1,4.39,5H16.11a1,1,0,0,1,.83.43A1,1,0,0,1,17.05,6.35Z"/>
</svg>